<?xml version="1.0" encoding="utf-8"?>
<!-- Generator: Adobe Illustrator 23.0.0, SVG Export Plug-In . SVG Version: 6.00 Build 0)  -->
<svg version="1.1" id="Layer_1" xmlns="http://www.w3.org/2000/svg" xmlns:xlink="http://www.w3.org/1999/xlink" x="0px" y="0px"
	 viewBox="0 0 66.67 67.35" style="enable-background:new 0 0 66.67 67.35;" xml:space="preserve">
<style type="text/css">
	.st0{fill:#C1A972;}
	.st1{fill:#AD9564;}
	.st2{fill:#ED2224;}
	.st3{fill:#FFFFFF;}
	.st4{fill:#27235F;}
	.st5{fill:#3C6C9B;}
	.st6{fill:#54B848;}
</style>
<g>
	<circle class="st0" cx="33.5" cy="33.71" r="33.17"/>
	<path class="st1" d="M16.42,50.28l20.51,16.43c16.24-1.63,29.03-14.99,29.77-31.48L48.26,18.66L16.42,50.28z"/>
	<g>
		<g>
			<rect x="16.42" y="18.66" class="st2" width="31.25" height="6.49"/>
			<rect x="16.42" y="25.14" class="st3" width="31.25" height="24.34"/>
			<rect x="23.19" y="14.76" class="st3" width="2.54" height="6.33"/>
			<rect x="38.74" y="14.76" class="st3" width="2.54" height="6.33"/>
			<rect x="27.14" y="28.95" class="st4" width="3.85" height="3.85"/>
			<rect x="27.14" y="35.39" class="st4" width="3.85" height="3.85"/>
			<rect x="33.5" y="35.39" class="st4" width="3.85" height="3.85"/>
			<rect x="20.61" y="35.39" class="st4" width="3.85" height="3.85"/>
			<rect x="20.61" y="41.8" class="st4" width="3.85" height="3.85"/>
			<rect x="27.14" y="41.8" class="st4" width="3.85" height="3.85"/>
			<rect x="33.5" y="28.95" class="st4" width="3.85" height="3.85"/>
			<rect x="40.01" y="28.95" class="st4" width="3.85" height="3.85"/>
			<circle class="st5" cx="45.15" cy="45.62" r="9.4"/>
		</g>
		<polygon class="st6" points="42.01,45.5 43.5,46.51 47.83,41.19 49.82,42.86 44.15,50.07 40.57,47.66 		"/>
	</g>
</g>
</svg>
